<svg width="1024" height="1024" viewBox="0 0 1024 1024" fill="none" xmlns="http://www.w3.org/2000/svg">
<g clip-path="url(#clip0_1_2)">
<g clip-path="url(#clip1_1_2)">
<mask id="mask0_1_2" style="mask-type:luminance" maskUnits="userSpaceOnUse" x="-66" y="-66" width="1156" height="1156">
<path d="M1090 -66H-66V1090H1090V-66Z" fill="white"/>
</mask>
<g mask="url(#mask0_1_2)">
<path fill-rule="evenodd" clip-rule="evenodd" d="M477.86 313.044C514.48 250.415 594.902 229.361 657.471 266.017C720.048 302.674 741.088 383.162 704.458 445.791C667.837 508.421 587.415 529.475 524.846 492.818C462.269 456.161 441.229 375.673 477.86 313.044Z" fill="#3BABFF" fill-opacity="0.690196"/>
<path fill-rule="evenodd" clip-rule="evenodd" d="M482.127 536.409C526.317 460.84 623.35 435.435 698.855 479.666C774.361 523.897 799.74 621.013 755.55 696.583C711.359 772.151 614.327 797.556 538.822 753.325C463.315 709.095 437.936 611.977 482.127 536.409Z" fill="#7DC7FF" fill-opacity="0.690196"/>
<path fill-rule="evenodd" clip-rule="evenodd" d="M271.692 432.094C320.446 348.726 427.498 320.699 510.79 369.496C594.091 418.291 622.096 525.433 573.34 608.802C524.584 692.171 417.538 720.198 334.238 671.401C250.941 622.605 222.938 515.464 271.692 432.094Z" fill="#0D97FF" fill-opacity="0.690196"/>
</g>
<path d="M497.933 68L485.252 68.0306L472.47 68.1032L444.969 68.5084L431.758 68.8735L417.578 69.4278L393.898 70.8021L378.262 72.0828L359.121 74.128L345.79 75.9037L324.774 79.3921L301.289 84.4172L292.359 86.6918L271.278 92.9708L260.699 96.6465L236.418 106.66L224.136 112.681L217.783 116.082L191.605 132.533L186.557 136.24L164.289 155.031L163.078 156.183L161.902 157.332L144.771 175.819L138.502 183.574L121.753 207.996L117.834 214.661L110.793 227.839L101.016 249.401L97.4035 258.666L91.0014 277.413L87.9633 287.708L82.551 309.332L78.5352 329.442L76.499 341.819L74.0196 359.996L72.457 374.353L70.5098 398.154L69.769 410.666L69.2367 421.97L68.3866 450.834L68.2206 461.332L68.1133 471.575L68 501.866V512.002V522.134L68.1133 552.428L68.2206 562.672L68.3866 573.169L69.2367 602.034L69.769 613.338L70.5098 625.846L72.457 649.653L74.0196 664.008L76.499 682.185L78.5352 694.562L82.551 714.674L87.9633 736.297L91.0014 746.592L97.4035 765.338L101.016 774.602L110.793 796.165L117.834 809.342L121.753 816.009L138.502 840.43L144.771 848.186L161.902 866.673L163.078 867.82L164.289 868.973L186.557 887.764L191.605 891.47L217.783 907.922L224.136 911.324L236.418 917.343L260.699 927.359L271.278 931.035L292.359 937.314L301.289 939.586L324.774 944.614L345.79 948.1L359.121 949.878L378.262 951.923L393.898 953.202L417.578 954.578L431.758 955.132L444.969 955.495L472.47 955.902L485.252 955.973L497.933 956H526.067L538.748 955.973L551.53 955.902L579.031 955.495L592.242 955.132L606.422 954.578L630.102 953.202L645.738 951.923L664.879 949.878L678.21 948.1L699.226 944.614L722.711 939.586L731.641 937.314L752.722 931.035L763.299 927.359L787.586 917.343L799.864 911.324L806.217 907.922L832.395 891.47L837.449 887.764L859.711 868.973L860.922 867.82L862.098 866.673L879.229 848.186L885.498 840.43L902.247 816.009L906.166 809.342L913.207 796.165L922.984 774.602L926.596 765.338L932.999 746.592L936.037 736.297L941.449 714.674L945.465 694.562L947.501 682.185L949.98 664.008L951.543 649.653L953.49 625.846L954.231 613.338L954.763 602.034L955.613 573.169L955.779 562.672L955.887 552.428L956 522.134V512.002V501.866L955.887 471.575L955.779 461.332L955.613 450.834L954.763 421.97L954.231 410.666L953.49 398.154L951.543 374.353L949.98 359.996L947.501 341.819L945.465 329.442L941.449 309.332L936.037 287.708L932.999 277.413L926.596 258.666L922.984 249.401L913.207 227.839L906.166 214.661L902.247 207.996L885.498 183.574L879.229 175.819L862.098 157.332L860.922 156.183L859.711 155.031L837.449 136.24L832.395 132.533L806.217 116.082L799.864 112.681L787.586 106.66L763.299 96.6465L752.722 92.9708L731.641 86.6918L722.711 84.4172L699.226 79.3921L678.21 75.9037L664.879 74.128L645.738 72.0828L630.102 70.8021L606.422 69.4278L592.242 68.8735L579.031 68.5084L551.53 68.1032L538.748 68.0306L526.067 68H497.933Z" fill="white"/>
<mask id="mask1_1_2" style="mask-type:luminance" maskUnits="userSpaceOnUse" x="-67" y="-66" width="1157" height="1156">
<path d="M1090 -66H-67V1090H1090V-66Z" fill="white"/>
</mask>
<g mask="url(#mask1_1_2)">
<path fill-rule="evenodd" clip-rule="evenodd" d="M476.293 307.011C514.054 242.488 596.98 220.797 661.495 258.562C726.02 296.327 747.715 379.249 709.945 443.771C672.184 508.294 589.258 529.984 524.743 492.219C460.218 454.454 438.523 371.533 476.293 307.011Z" fill="#3BABFF" fill-opacity="0.690196"/>
<path fill-rule="evenodd" clip-rule="evenodd" d="M480.693 537.128C526.259 459.275 626.312 433.102 704.168 478.67C782.024 524.238 808.193 624.291 762.627 702.145C717.061 779.998 617.009 806.171 539.153 760.602C461.297 715.035 435.128 614.981 480.693 537.128Z" fill="#7DC7FF" fill-opacity="0.690196"/>
<path fill-rule="evenodd" clip-rule="evenodd" d="M263.709 429.66C313.981 343.771 424.364 314.897 510.249 365.169C596.142 415.44 625.019 525.821 574.746 611.71C524.473 697.599 414.094 726.474 328.201 676.202C242.312 625.931 213.438 515.55 263.709 429.66Z" fill="#0D97FF" fill-opacity="0.690196"/>
</g>
</g>
</g>
<defs>
<clipPath id="clip0_1_2">
<rect width="1024" height="1024" fill="white"/>
</clipPath>
<clipPath id="clip1_1_2">
<rect width="1157" height="1156" fill="white" transform="translate(-67 -66)"/>
</clipPath>
</defs>
</svg>
