<?xml version="1.0" encoding="UTF-8" ?>
<!DOCTYPE svg PUBLIC "-//W3C//DTD SVG 1.1//EN" "http://www.w3.org/Graphics/SVG/1.1/DTD/svg11.dtd">
<svg width="1024pt" height="1024pt" viewBox="0 0 1024 1024" version="1.1" xmlns="http://www.w3.org/2000/svg">
<g id="#f5f9fdff">
<path fill="#f5f9fd" opacity="1.00" d=" M 228.20 0.00 L 796.58 0.00 C 834.20 1.04 871.58 11.10 904.43 29.52 C 936.51 47.36 964.21 72.98 984.63 103.47 C 1009.01 139.69 1022.61 182.88 1024.00 226.48 L 1024.00 795.73 C 1023.10 834.61 1012.49 873.25 993.04 906.96 C 972.64 942.58 942.60 972.61 906.98 993.03 C 873.79 1012.21 835.79 1022.72 797.51 1024.00 L 228.36 1024.00 C 194.18 1023.22 160.18 1014.97 129.55 999.74 C 100.77 985.52 75.07 965.19 54.45 940.60 C 20.84 900.84 1.56 849.50 0.00 797.50 L 0.00 227.35 C 1.08 188.29 11.93 149.51 31.68 115.77 C 50.76 82.96 78.02 54.96 110.27 34.98 C 145.51 13.03 186.71 0.93 228.20 0.00 M 563.84 184.87 C 554.19 187.69 544.45 190.24 535.02 193.75 C 526.18 196.25 518.18 200.85 509.85 204.58 C 503.59 207.96 497.59 211.79 491.40 215.29 C 484.59 220.18 477.13 224.22 470.96 229.95 C 459.64 238.87 449.29 249.02 439.92 259.95 C 433.93 265.91 429.45 273.17 423.96 279.56 C 418.51 279.89 413.49 276.77 408.03 276.55 C 395.47 274.25 382.76 273.17 370.03 272.69 C 355.24 272.23 340.67 275.29 326.07 277.18 C 313.85 280.18 301.90 284.18 290.01 288.31 C 271.70 295.86 254.60 306.03 238.40 317.39 C 217.45 333.66 198.73 352.93 183.62 374.77 C 166.17 401.52 152.85 431.28 147.06 462.81 C 145.83 472.21 143.11 481.45 143.41 491.02 C 142.14 499.61 142.40 508.37 143.29 516.99 C 143.28 524.37 144.17 531.69 144.82 539.02 C 145.92 542.60 146.79 546.23 147.40 549.93 C 151.61 573.50 161.18 595.80 173.59 616.19 C 177.14 623.12 182.34 628.95 186.86 635.23 C 189.56 639.06 193.28 641.97 196.22 645.59 C 200.94 651.64 207.22 656.15 212.57 661.59 C 219.83 667.25 226.83 673.35 234.91 677.85 C 253.44 689.25 273.84 697.49 294.98 702.60 C 307.53 705.07 320.26 706.64 333.01 707.37 C 340.01 707.15 347.10 708.09 354.02 706.73 C 362.04 706.24 369.98 704.95 377.89 703.59 C 381.80 703.50 385.54 702.36 389.30 701.42 C 392.04 710.90 393.64 720.79 397.49 729.95 C 403.16 745.74 411.33 760.52 420.19 774.73 C 424.97 780.64 428.91 787.27 434.46 792.53 C 451.89 812.69 473.56 829.41 497.95 840.19 C 527.97 854.70 561.85 859.98 594.97 858.32 C 599.26 857.33 603.69 857.63 607.99 856.75 C 613.65 856.20 619.17 854.60 624.86 854.36 C 637.50 851.14 649.95 847.13 662.23 842.71 C 668.12 840.25 673.72 837.14 679.59 834.63 C 695.53 825.71 711.30 816.20 724.99 804.01 C 740.61 790.55 754.38 775.04 766.38 758.29 C 781.22 736.12 792.76 711.74 800.16 686.09 C 802.66 675.11 805.10 664.16 806.70 653.01 C 807.89 647.43 807.12 641.67 808.30 636.09 C 809.04 621.68 807.56 607.32 806.35 592.99 C 803.82 584.25 802.98 575.09 800.01 566.45 C 798.66 558.82 795.31 551.78 792.63 544.57 C 787.17 532.11 780.71 520.11 773.47 508.60 C 772.36 506.58 769.33 504.59 770.78 502.05 C 778.36 489.22 784.72 475.70 790.24 461.85 C 792.79 453.57 796.30 445.56 797.71 436.96 C 800.27 428.18 801.14 419.07 803.06 410.16 C 805.14 393.22 805.24 375.99 803.51 359.03 C 803.81 352.85 802.13 346.90 800.69 340.98 C 799.36 332.50 796.84 324.30 794.75 315.99 C 789.52 300.60 782.56 285.79 774.08 271.93 C 770.47 264.82 765.17 258.80 760.49 252.40 C 747.89 237.61 733.78 223.98 717.66 213.05 C 697.12 199.84 674.36 190.12 650.52 184.76 C 636.12 182.47 621.67 180.12 607.04 180.47 C 592.49 179.88 578.22 183.29 563.84 184.87 Z" />
</g>
<g id="#5aaefdff">
<path fill="#5aaefd" opacity="1.00" d=" M 563.84 184.87 C 578.22 183.29 592.49 179.88 607.04 180.47 C 621.67 180.12 636.12 182.47 650.52 184.76 C 674.36 190.12 697.12 199.84 717.66 213.05 C 733.78 223.98 747.89 237.61 760.49 252.40 C 765.17 258.80 770.47 264.82 774.08 271.93 C 782.56 285.79 789.52 300.60 794.75 315.99 C 796.84 324.30 799.36 332.50 800.69 340.98 C 802.13 346.90 803.81 352.85 803.51 359.03 C 805.24 375.99 805.14 393.22 803.06 410.16 C 801.14 419.07 800.27 428.18 797.71 436.96 C 796.30 445.56 792.79 453.57 790.24 461.85 C 784.72 475.70 778.36 489.22 770.78 502.05 C 769.33 504.59 772.36 506.58 773.47 508.60 C 780.71 520.11 787.17 532.11 792.63 544.57 C 795.31 551.78 798.66 558.82 800.01 566.45 C 802.98 575.09 803.82 584.25 806.35 592.99 C 807.56 607.32 809.04 621.68 808.30 636.09 C 807.12 641.67 807.89 647.43 806.70 653.01 C 805.10 664.16 802.66 675.11 800.16 686.09 C 792.76 711.74 781.22 736.12 766.38 758.29 C 754.38 775.04 740.61 790.55 724.99 804.01 C 711.30 816.20 695.53 825.71 679.59 834.63 C 673.72 837.14 668.12 840.25 662.23 842.71 C 649.95 847.13 637.50 851.14 624.86 854.36 C 619.17 854.60 613.65 856.20 607.99 856.75 C 603.69 857.63 599.26 857.33 594.97 858.32 C 561.85 859.98 527.97 854.70 497.95 840.19 C 473.56 829.41 451.89 812.69 434.46 792.53 C 428.91 787.27 424.97 780.64 420.19 774.73 C 411.33 760.52 403.16 745.74 397.49 729.95 C 393.64 720.79 392.04 710.90 389.30 701.42 C 385.54 702.36 381.80 703.50 377.89 703.59 C 369.98 704.95 362.04 706.24 354.02 706.73 C 347.10 708.09 340.01 707.15 333.01 707.37 C 320.26 706.64 307.53 705.07 294.98 702.60 C 273.84 697.49 253.44 689.25 234.91 677.85 C 226.83 673.35 219.83 667.25 212.57 661.59 C 207.22 656.15 200.94 651.64 196.22 645.59 C 193.28 641.97 189.56 639.06 186.86 635.23 C 182.34 628.95 177.14 623.12 173.59 616.19 C 161.18 595.80 151.61 573.50 147.40 549.93 C 146.79 546.23 145.92 542.60 144.82 539.02 C 144.17 531.69 143.28 524.37 143.29 516.99 C 142.40 508.37 142.14 499.61 143.41 491.02 C 143.11 481.45 145.83 472.21 147.06 462.81 C 152.85 431.28 166.17 401.52 183.62 374.77 C 198.73 352.93 217.45 333.66 238.40 317.39 C 254.60 306.03 271.70 295.86 290.01 288.31 C 301.90 284.18 313.85 280.18 326.07 277.18 C 340.67 275.29 355.24 272.23 370.03 272.69 C 382.76 273.17 395.47 274.25 408.03 276.55 C 413.49 276.77 418.51 279.89 423.96 279.56 C 429.45 273.17 433.93 265.91 439.92 259.95 C 449.29 249.02 459.64 238.87 470.96 229.95 C 477.13 224.22 484.59 220.18 491.40 215.29 C 497.59 211.79 503.59 207.96 509.85 204.58 C 518.18 200.85 526.18 196.25 535.02 193.75 C 544.45 190.24 554.19 187.69 563.84 184.87 M 422.21 282.15 C 418.40 286.61 416.17 292.12 412.93 296.97 C 410.30 300.85 408.81 305.34 406.31 309.30 C 402.99 315.57 400.57 322.27 397.53 328.68 C 388.10 351.98 382.99 376.90 381.27 401.94 C 380.44 409.64 381.36 417.37 381.40 425.09 C 382.25 434.17 382.17 443.42 384.55 452.29 C 388.13 470.72 393.11 489.12 402.19 505.67 C 406.37 516.23 413.20 525.44 419.07 535.07 C 418.71 537.84 416.73 540.07 415.44 542.47 C 408.89 554.35 403.05 566.65 398.37 579.39 C 389.94 602.61 385.75 627.21 384.49 651.83 C 385.12 667.35 384.83 683.14 388.64 698.32 C 388.79 700.33 390.84 701.28 392.63 700.62 C 402.35 698.11 411.80 694.65 421.24 691.25 C 429.72 687.06 438.53 683.52 446.55 678.46 C 454.50 674.37 461.49 668.77 469.11 664.14 C 489.52 648.74 507.43 630.14 522.74 609.70 C 524.92 607.02 528.41 609.44 531.10 609.82 C 546.82 613.24 562.91 615.26 579.02 615.24 C 592.46 615.58 605.79 613.24 619.03 611.22 C 625.07 610.42 630.76 608.16 636.63 606.66 C 661.14 599.99 683.97 588.16 704.74 573.68 C 710.89 570.01 715.93 564.88 721.63 560.61 C 728.39 554.41 735.29 548.29 741.24 541.29 C 744.87 537.55 748.63 533.91 751.56 529.57 C 757.65 522.21 763.77 514.76 768.34 506.33 C 770.36 501.91 765.93 498.53 763.76 495.24 C 754.64 485.08 745.45 474.79 734.56 466.49 C 723.38 456.77 710.42 449.22 697.02 442.99 C 676.04 432.85 653.25 426.50 629.99 424.76 C 607.29 422.06 584.31 424.86 562.09 429.64 C 560.03 422.68 558.41 415.60 556.41 408.62 C 550.44 389.75 541.03 372.20 530.37 355.60 C 517.47 337.47 501.50 321.61 483.70 308.28 C 477.85 303.94 471.33 300.66 465.20 296.76 C 453.89 290.86 442.09 285.90 430.03 281.74 C 427.53 281.06 424.17 279.70 422.21 282.15 Z" />
</g>
<g id="#3a9efdff">
<path fill="#3a9efd" opacity="1.00" d=" M 422.21 282.15 C 424.17 279.70 427.53 281.06 430.03 281.74 C 442.09 285.90 453.89 290.86 465.20 296.76 C 471.33 300.66 477.85 303.94 483.70 308.28 C 501.50 321.61 517.47 337.47 530.37 355.60 C 541.03 372.20 550.44 389.75 556.41 408.62 C 558.41 415.60 560.03 422.68 562.09 429.64 C 584.31 424.86 607.29 422.06 629.99 424.76 C 653.25 426.50 676.04 432.85 697.02 442.99 C 710.42 449.22 723.38 456.77 734.56 466.49 C 745.45 474.79 754.64 485.08 763.76 495.24 C 765.93 498.53 770.36 501.91 768.34 506.33 C 763.77 514.76 757.65 522.21 751.56 529.57 C 748.63 533.91 744.87 537.55 741.24 541.29 C 735.29 548.29 728.39 554.41 721.63 560.61 C 715.93 564.88 710.89 570.01 704.74 573.68 C 683.97 588.16 661.14 599.99 636.63 606.66 C 630.76 608.16 625.07 610.42 619.03 611.22 C 605.79 613.24 592.46 615.58 579.02 615.24 C 562.91 615.26 546.82 613.24 531.10 609.82 C 528.41 609.44 524.92 607.02 522.74 609.70 C 507.43 630.14 489.52 648.74 469.11 664.14 C 461.49 668.77 454.50 674.37 446.55 678.46 C 438.53 683.52 429.72 687.06 421.24 691.25 C 411.80 694.65 402.35 698.11 392.63 700.62 C 390.84 701.28 388.79 700.33 388.64 698.32 C 384.83 683.14 385.12 667.35 384.49 651.83 C 385.75 627.21 389.94 602.61 398.37 579.39 C 403.05 566.65 408.89 554.35 415.44 542.47 C 416.73 540.07 418.71 537.84 419.07 535.07 C 413.20 525.44 406.37 516.23 402.19 505.67 C 393.11 489.12 388.13 470.72 384.55 452.29 C 382.17 443.42 382.25 434.17 381.40 425.09 C 381.36 417.37 380.44 409.64 381.27 401.94 C 382.99 376.90 388.10 351.98 397.53 328.68 C 400.57 322.27 402.99 315.57 406.31 309.30 C 408.81 305.34 410.30 300.85 412.93 296.97 C 416.17 292.12 418.40 286.61 422.21 282.15 Z" />
</g>
</svg>
