<svg xmlns="http://www.w3.org/2000/svg" xmlns:xlink="http://www.w3.org/1999/xlink" width="92" height="92" viewBox="0 0 92 92"><defs><style>.a{clip-path:url(#b);}.b{fill:#63b3fd;}.c{fill:#359cfd;}.d{fill:#53c69b;}</style><clipPath id="b"><rect width="92" height="92"/></clipPath></defs><g id="a" class="a"><path class="b" d="M22.86,12.9a41.758,41.758,0,0,1,20.1-7.04C42.98,7.24,43,8.62,43,10A32.929,32.929,0,0,0,23.29,26.31c-9.09,16.7-4.26,40.95,12.73,50.7,11.32,6.95,27.85,5.54,36.41-5.17.43.39,1.29,1.17,1.73,1.56C58.42,88.6,30.38,87.49,15.92,71.08,9.63,63.98,5.54,54.59,5.96,45,5.4,32.32,12.5,19.95,22.86,12.9Z"/><path class="c" d="M66.27,7.24c3.43-1.37,7.55,2,6.68,5.66-.53,3.86-5.86,5.57-8.49,2.65C61.78,13.17,62.96,8.39,66.27,7.24Z"/><path class="c" d="M54.37,10.37c3.5-1.65,8.5,1.45,7.59,5.51-.78,4.08-6.6,5.54-9.44,2.62C49.69,16.19,50.99,11.38,54.37,10.37Z"/><path class="c" d="M73.27,19.24c3.43-1.37,7.55,2,6.68,5.65-.53,3.87-5.86,5.58-8.5,2.66C68.77,25.16,69.96,20.39,73.27,19.24Z"/><path class="c" d="M54.05,32Q69,32,83.94,31.99a39.182,39.182,0,0,1-1.14,28.9c-2.01,4.7-5.43,8.59-8.64,12.51-.44-.39-1.3-1.17-1.73-1.56a51.359,51.359,0,0,1-3.68-7.66C63.87,53.44,58.67,42.85,54.05,32Z"/><path class="d" d="M23.29,26.31A32.929,32.929,0,0,1,43,10c2.45.36,2.22,3.69,2.5,5.64C49.41,20.38,51.34,26.5,54.05,32c4.62,10.85,9.82,21.44,14.7,32.18a51.359,51.359,0,0,0,3.68,7.66c-8.56,10.71-25.09,12.12-36.41,5.17C19.03,67.26,14.2,43.01,23.29,26.31Z"/></g></svg>